<svg version="1.1" id="Layer_1" xmlns="http://www.w3.org/2000/svg" xmlns:xlink="http://www.w3.org/1999/xlink" x="0px" y="0px"
	 width="100%" viewBox="0 0 1024 1024" enable-background="new 0 0 1024 1024" xml:space="preserve">

<path fill="#00A187" opacity="1.000000" stroke="none"
	d="
M622.923279,189.035019
	C636.754150,194.557770 650.186340,200.046173 664.564636,205.921158
	C657.205017,205.207169 650.892761,204.292496 644.555176,204.056107
	C636.544617,203.757324 628.383606,203.103729 620.520264,204.229248
	C607.198792,206.136063 593.875916,208.632828 580.886841,212.121994
	C561.292603,217.385483 542.788635,225.423996 525.232239,235.834015
	C507.616821,246.279022 491.917664,259.120789 477.546844,273.405884
	C457.779266,293.055573 440.907867,315.079407 426.810120,339.291443
	C414.321106,360.740540 403.615814,382.942657 396.866516,406.768524
	C392.012726,423.903046 388.072693,441.396057 385.239166,458.973236
	C382.737457,474.492004 381.663391,490.328217 381.183929,506.061554
	C380.688629,522.316284 380.408020,538.761902 382.269012,554.865601
	C386.118652,588.177124 393.887451,620.631775 407.158356,651.676880
	C418.742981,678.777100 433.260742,704.212708 451.877319,726.860901
	C464.219910,741.876343 478.843231,755.112366 493.167938,768.364136
	C500.637512,775.274170 509.212921,781.304993 518.090088,786.312378
	C537.293030,797.144348 557.548523,805.929138 579.153809,810.631653
	C584.435181,811.781250 590.865662,809.678345 596.296082,807.745544
	C614.280701,801.344299 632.508972,795.323730 649.772095,787.285339
	C666.902954,779.308533 683.411804,769.746277 699.369385,759.585266
	C710.481140,752.509705 720.527710,743.618835 730.453003,734.862061
	C740.650940,725.864624 750.823425,716.655945 759.743835,706.437073
	C772.094055,692.289429 783.945374,677.590393 794.738831,662.233765
	C804.704956,648.054138 813.074341,632.743774 821.959961,617.820007
	C823.921021,614.526367 825.095215,610.764160 826.779541,606.876648
	C827.436768,607.458435 828.748779,608.277649 828.639954,608.572693
	C822.155579,626.150574 815.804077,643.784363 808.900757,661.199158
	C800.249756,683.022583 788.480896,703.193176 775.167480,722.489990
	C763.245239,739.770508 750.117004,756.036377 734.922607,770.566589
	C716.152466,788.516296 695.465759,803.888794 672.825500,816.637390
	C651.396179,828.704041 629.132812,838.896484 605.576355,846.028625
	C594.430115,849.403320 583.160156,852.523743 571.764038,854.877258
	C559.299011,857.451477 546.684021,859.649292 534.024231,860.838806
	C519.293091,862.222961 504.356659,863.639526 489.665161,862.673096
	C470.884918,861.437561 452.205841,858.172302 433.583130,855.163208
	C412.530243,851.761414 392.280914,845.013489 372.810455,836.651794
	C356.587891,829.684937 341.003998,821.011292 325.762634,812.032043
	C304.271393,799.370911 284.783234,783.927856 266.899811,766.459717
	C254.162766,754.018433 241.867645,741.227966 231.831726,726.454224
	C223.798828,714.629211 215.012238,703.195435 208.187943,690.699158
	C198.681641,673.291748 189.534424,655.503235 182.396927,637.041504
	C175.833282,620.064026 171.662491,602.093750 167.354019,584.338562
	C164.941010,574.394470 164.109497,564.027283 163.070251,553.799377
	C161.792007,541.219238 160.456329,528.595764 160.235474,515.971985
	C160.040100,504.804657 161.154694,493.596619 162.036316,482.433838
	C162.757767,473.298981 163.357407,464.079620 165.128967,455.118744
	C168.429169,438.425476 171.629761,421.618622 176.519058,405.354187
	C185.107941,376.783173 198.012589,350.102875 214.310669,324.990814
	C225.395905,307.910736 237.785812,292.038574 251.375046,276.877838
	C269.615662,256.527802 289.887970,238.649567 312.368744,223.287308
	C322.540680,216.336349 333.125183,209.864990 344.024658,204.130447
	C363.052094,194.119583 383.000519,186.139099 403.644501,180.060745
	C412.810883,177.361847 422.078827,174.905548 431.430847,172.967148
	C441.301910,170.921143 451.282776,169.215515 461.298065,168.102692
	C473.690399,166.725754 486.164215,165.435577 498.609161,165.373047
	C509.443909,165.318619 520.318726,166.756226 531.118713,168.021820
	C542.777466,169.388000 554.581909,170.445618 565.943542,173.201492
	C584.962341,177.814651 603.680054,183.668808 622.923279,189.035019
M399.504059,292.979645
	C399.662628,292.694550 399.794220,292.390076 399.983612,292.127167
	C413.540771,273.307495 427.444092,254.785446 445.062897,239.438187
	C454.821228,230.937958 464.551117,222.405045 475.514648,212.819458
	C471.463684,213.694839 468.546082,214.325302 465.765045,214.926270
	C464.912292,214.674927 463.744446,213.959915 462.666870,214.076859
	C457.813660,214.603485 452.923492,215.074081 448.160004,216.094086
	C427.534241,220.510681 407.360168,226.299973 387.830627,234.500229
	C355.166260,248.215637 326.874634,268.343170 301.262329,292.419708
	C293.244659,299.956635 286.068573,308.423798 278.825226,316.742035
	C264.327667,333.391083 252.442291,351.865692 241.996048,371.252899
	C229.066284,395.249298 219.470917,420.595093 214.495728,447.380066
	C211.367920,464.219360 209.166840,481.353455 208.235580,498.447174
	C207.060074,520.023804 207.430801,541.730286 212.048904,563.027954
	C215.481827,578.859863 218.443054,594.894714 223.368423,610.277588
	C230.005493,631.006348 238.652893,651.100891 250.846603,669.294312
	C260.442596,683.611877 270.234070,697.888245 281.106537,711.231323
	C289.310333,721.299316 299.050690,730.202332 308.681915,738.994202
	C317.293488,746.855286 326.359283,754.315002 335.811768,761.138428
	C355.189972,775.127014 376.350250,786.073364 398.578094,794.719299
	C416.088043,801.530090 434.053497,807.106140 452.655365,810.318787
	C459.870148,811.564819 467.057983,812.966736 475.072632,814.448242
	C464.968536,805.806641 455.785156,797.811401 446.448395,789.999512
	C431.516174,777.505981 419.028625,762.772034 407.699493,747.094177
	C399.332001,735.514771 391.427460,723.557495 383.995789,711.354980
	C371.622681,691.038574 361.522980,669.489197 354.231934,646.898621
	C346.002014,621.398804 339.103943,595.454529 336.984558,568.541626
	C335.629547,551.335449 334.048462,534.140076 333.126282,516.909973
	C332.713043,509.188995 333.496368,501.382904 334.038818,493.636597
	C334.887848,481.512360 335.442871,469.328857 337.128601,457.311615
	C339.273010,442.024689 341.503143,426.642120 345.344940,411.725403
	C351.614288,387.383057 359.848419,363.557343 371.530121,341.224243
	C380.028717,324.976624 389.792999,309.391083 399.504059,292.979645
z"/>
<path fill="#00A187" opacity="1.000000" stroke="none"
	d="
M563.325439,558.725464
	C551.792908,551.358521 540.641968,544.070984 529.294556,537.103210
	C522.722107,533.067505 522.347351,531.863831 526.217102,525.199402
	C529.715332,519.174866 532.803345,512.912170 536.397217,506.142273
	C502.677551,503.614532 469.417145,503.030518 435.061951,506.022095
	C444.831238,484.237000 456.151581,465.485962 469.598297,448.122833
	C476.278503,439.496979 484.201813,431.822266 491.695618,423.842041
	C496.821136,418.383820 504.170807,417.910614 510.801361,416.071655
	C526.406799,411.743561 542.123840,407.818695 557.752319,403.571136
	C559.237000,403.167633 560.929749,401.918640 561.653748,400.587769
	C566.536438,391.612244 570.917175,382.356750 575.974854,373.485138
	C582.275757,362.432709 588.774353,351.467926 595.736145,340.824127
	C603.118530,329.537292 610.523621,318.164246 619.037354,307.742645
	C631.211670,292.840118 643.943176,278.326263 657.280518,264.457855
	C672.419800,248.715698 689.445557,235.066788 707.601624,222.818039
	C730.351746,207.469894 754.345520,194.719315 780.693604,186.790421
	C787.653381,184.696030 794.834778,183.007965 802.036133,182.120361
	C814.428955,180.592911 819.409485,185.083130 819.723694,198.879990
	C820.017822,211.797180 818.553528,224.838409 816.871704,237.695389
	C814.762146,253.822052 812.391052,269.988251 808.759766,285.822510
	C804.676880,303.626099 798.973389,321.054047 794.138306,338.690186
	C787.803284,361.797272 778.126648,383.573151 767.469055,404.898315
	C754.865845,430.116455 739.908325,453.896973 721.867676,475.652100
	C717.269836,481.196564 713.096985,487.155060 708.040833,492.238922
	C703.789490,496.513428 704.501526,501.238678 705.119019,506.061981
	C706.589233,517.544312 708.309326,528.995667 710.020691,540.445801
	C710.886353,546.237366 712.180969,551.973816 712.820251,557.785889
	C713.094238,560.276367 712.901978,563.296021 711.716980,565.395386
	C699.266846,587.452637 686.668152,609.428101 673.868469,631.284363
	C671.165161,635.900391 667.543091,639.991028 664.227966,644.232788
	C660.442627,649.076416 654.967529,648.749268 652.105835,643.123779
	C647.481018,634.032349 642.911438,624.868042 639.089478,615.422607
	C631.925842,597.718506 625.316772,579.790039 618.459412,561.961670
	C618.190979,561.263672 617.740601,560.635742 616.707703,558.769470
	C612.466064,563.377502 608.750916,567.593567 604.826965,571.605469
	C602.653564,573.827576 600.196899,575.791443 597.752136,577.725342
	C592.934875,581.535950 591.375488,581.177673 586.630798,577.220642
	C579.110596,570.948669 571.307800,565.015503 563.325439,558.725464
M697.110046,298.390137
	C687.507324,301.048737 679.551270,306.079102 673.906616,314.459259
	C666.259399,325.812500 663.520325,338.394135 666.242920,351.653595
	C667.479614,357.676208 669.936340,364.066742 673.691223,368.831146
	C682.857178,380.461517 695.212341,385.289337 710.136475,381.995117
	C718.824036,380.077484 726.334351,376.113800 731.968811,369.091705
	C741.012390,357.820892 744.231628,345.088837 742.067444,330.727051
	C739.460144,313.423889 727.494873,301.333984 711.452637,298.152649
	C707.096985,297.288910 702.420715,298.042084 697.110046,298.390137
z"/>
<path fill="#00A187" opacity="1.000000" stroke="none"
	d="
M563.298706,591.810303
	C570.609375,605.819702 570.544250,619.977234 566.004578,634.380493
	C560.591309,651.555115 551.899475,666.834534 539.521301,679.963867
	C538.871277,680.653320 538.082947,681.212402 536.816956,682.296204
	C532.367737,667.712219 532.681274,653.064148 530.925110,637.888977
	C515.948608,659.771790 497.415314,676.274048 470.756012,683.216370
	C472.933960,674.400696 474.544830,666.177246 477.045807,658.234131
	C479.567139,650.226196 482.542603,642.294006 486.117523,634.704773
	C489.345367,627.852295 492.674438,620.989197 496.157471,614.360779
	C482.027252,619.031738 467.463379,623.846069 451.822937,629.016235
	C455.129730,616.197632 460.021637,605.770508 467.173126,596.234680
	C478.780975,580.756592 494.386780,571.769470 513.136108,569.255676
	C531.365662,566.811523 547.501221,572.393433 559.985474,586.575684
	C561.249695,588.011902 562.026855,589.876770 563.298706,591.810303
z"/>

</svg>